# xmcd
#
# Track frame offsets: 
#        150
#        21181
#        48121
#        70520
#        114823
#        136021
#        149674
#        171348
#        214818
#        254313
#
# Disc length: 3695 seconds
#
# Revision: 0
# Processed by: cddbd v1.5.2PL0 Copyright (c) Steve Scherf et al.
# Submitted via: ExactAudioCopy v0.95b4
#
DISCID=870e6d0a
DTITLE=Fleetwood Mac - Carousel Ballroom live in SF CA 1968 bootleg
DYEAR=1968
DGENRE=Blues
TTITLE0=Madison Blues
TTITLE1=Something Inside Of Me
TTITLE2=The Woman I Love
TTITLE3=Worried Dreams
TTITLE4=Dust My Broom
TTITLE5=Got To Move
TTITLE6=Trying So Hard To Forget
TTITLE7=Fleetwood Mac
TTITLE8=Have You Ever Loved A Woman
TTITLE9=Lazy Poker Blues
EXTD=
EXTT0=
EXTT1=
EXTT2=
EXTT3=
EXTT4=
EXTT5=
EXTT6=
EXTT7=
EXTT8=
EXTT9=
PLAYORDER=
